<?xml version="1.0" encoding="UTF-8"?>
<svg id="_레이어_1" data-name="레이어 1" xmlns="http://www.w3.org/2000/svg" viewBox="0 0 124 138">
  <defs>
    <style>
      .cls-1 {
        fill: #f87701;
      }

      .cls-1, .cls-2, .cls-3 {
        fill-rule: evenodd;
      }

      .cls-2 {
        fill: #19181f;
      }

      .cls-3 {
        fill: #ff8b00;
      }
    </style>
  </defs>
  <path id="Fill-1" class="cls-3" d="m34.79,88.28c3.11,26.58,46.25,18.66,46.25,18.66L117.63,31.74c-1.63-8.37-8.27-14.9-16.69-16.1l-52.39-7.49c-8.82-1.26-17.38,3.64-20.93,11.99l-12.44,29.3c17.29-7.29,18.1,25.96,19.6,38.83"/>
  <path id="Fill-3" class="cls-1" d="m9.6,102.2l31.96,23.93c6.26,4.69,14.63,5.21,21.4,1.33l49.4-28.28c6.88-3.94,10.82-11.67,10.03-19.68l-4.49-45.82c-.06-.66-.16-1.3-.29-1.94,0,0-39.07,68.02-62.25,73.41-9.61,2.24-17.49-7.74-20.6-34.32-1.51-12.87-2.31-28.68-19.6-21.39l-12.04,28.36c-3.68,8.67-1,18.8,6.47,24.39"/>
  <path id="Fill-5" class="cls-2" d="m48.12,30.26c1.05-.63,1.37-2.43.71-4.01-.66-1.58-2.04-2.35-3.09-1.71-1.05.63-1.37,2.43-.71,4.01.66,1.58,2.04,2.35,3.09,1.71"/>
  <path id="Fill-7" class="cls-2" d="m57.8,25.43c1.05-.63,1.37-2.43.71-4.01-.66-1.58-2.04-2.35-3.09-1.71-1.05.63-1.37,2.43-.71,4.01.66,1.58,2.04,2.35,3.09,1.71"/>
  <path id="Fill-9" class="cls-2" d="m53.21,37.85c-1.52.23-3.12.1-4.82-.37-.76-.21-1.2-1.01-.99-1.78.21-.77.99-1.23,1.75-1.01,4.57,1.28,8.24-.85,11.22-6.52.37-.71,1.23-.97,1.92-.59.69.38.95,1.26.58,1.97-2.62,4.97-5.85,7.75-9.66,8.32"/>
</svg>