<?xml version="1.0" encoding="UTF-8"?>
<svg id="_레이어_1" data-name="레이어 1" xmlns="http://www.w3.org/2000/svg" viewBox="0 0 342.21 313.53">
  <defs>
    <style>
      .cls-1 {
        fill: #f4ce23;
      }

      .cls-2 {
        fill: #e94f4d;
      }

      .cls-3 {
        fill: #f2a8c8;
      }

      .cls-4 {
        fill: #c63937;
      }

      .cls-5 {
        fill: #dd7caf;
      }

      .cls-6 {
        fill: #d9b216;
      }

      .cls-7 {
        fill: #105aa0;
      }
    </style>
  </defs>
  <path class="cls-6" d="m268.19,276.26c-1.7,1.68-3.07,3.67-4.03,5.64-.95-1.97-2.33-3.96-4.03-5.64-2.92-2.99-6.06-3.95-7.81-3-1.89.86-2.24,3.4-3.59,4.53-1.13,1.35-3.66,1.7-4.53,3.59-.96,1.75,0,4.89,3,7.81,1.68,1.7,3.68,3.07,5.64,4.03-1.97.95-3.96,2.33-5.64,4.03-2.99,2.92-3.95,6.06-3,7.81.86,1.89,3.4,2.24,4.53,3.59,1.35,1.13,1.7,3.66,3.59,4.53,1.75.96,4.89,0,7.81-3,1.7-1.68,3.07-3.67,4.03-5.64.95,1.97,2.33,3.96,4.03,5.64,2.92,2.99,6.06,3.95,7.81,3,1.89-.86,2.24-3.4,3.59-4.53,1.13-1.35,3.66-1.7,4.53-3.59.96-1.75,0-4.89-3-7.81-1.68-1.7-3.67-3.07-5.64-4.03,1.97-.95,3.96-2.33,5.64-4.03,2.99-2.92,3.95-6.06,3-7.81-.86-1.89-3.4-2.24-4.53-3.59-1.35-1.13-1.7-3.66-3.59-4.53-1.75-.96-4.89,0-7.81,3Z"/>
  <path class="cls-7" d="m269.03,288.84c-2.07,3.54-2.07,5.21,0,8.76.19.32-.17.68-.49.49-3.54-2.07-5.21-2.07-8.76,0-.32.19-.68-.17-.49-.49,2.07-3.54,2.07-5.21,0-8.76-.19-.32.17-.68.49-.49,3.54,2.07,5.21,2.07,8.76,0,.32-.19.68.17.49.49Z"/>
  <g>
    <ellipse class="cls-4" cx="111.2" cy="18.12" rx="10.83" ry="6.67" transform="translate(-.79 30.43) rotate(-15.53)"/>
    <ellipse class="cls-4" cx="103.67" cy="31.45" rx="6.67" ry="10.83" transform="translate(-4.64 28.9) rotate(-15.53)"/>
    <ellipse class="cls-4" cx="90.34" cy="23.92" rx="10.83" ry="6.67" transform="translate(-3.11 25.06) rotate(-15.53)"/>
    <ellipse class="cls-4" cx="97.87" cy="10.59" rx="6.67" ry="10.83" transform="translate(.74 26.59) rotate(-15.53)"/>
    <ellipse class="cls-2" cx="106.09" cy="11.59" rx="10.83" ry="6.67" transform="translate(43.81 98.25) rotate(-60.53)"/>
    <ellipse class="cls-2" cx="110.19" cy="26.34" rx="6.67" ry="10.83" transform="translate(33.05 109.32) rotate(-60.53)"/>
    <ellipse class="cls-2" cx="95.44" cy="30.44" rx="10.83" ry="6.67" transform="translate(21.98 98.56) rotate(-60.53)"/>
    <ellipse class="cls-2" cx="91.34" cy="15.69" rx="6.67" ry="10.83" transform="translate(32.74 87.49) rotate(-60.53)"/>
    <g>
      <ellipse class="cls-1" cx="100.77" cy="21.02" rx="5.45" ry="1.26" transform="translate(32.89 98.41) rotate(-60.53)"/>
      <ellipse class="cls-1" cx="100.77" cy="21.02" rx="1.26" ry="5.45" transform="translate(32.89 98.41) rotate(-60.53)"/>
    </g>
  </g>
  <g>
    <path class="cls-5" d="m325.22,211.24c0,5.47-3.8,10-5.19,11.47-.27.29-.73.29-1,0-1.39-1.43-5.18-5.85-5.18-11.48,0-4.72,2.66-8.49,4.34-10.4.72-.82,1.97-.82,2.69,0,1.68,1.9,4.34,5.65,4.34,10.41Z"/>
    <path class="cls-5" d="m312.82,212.42c4.67,2.74,6.64,8.34,7.21,10.29.11.38-.11.78-.5.88-1.92.51-7.59,1.62-12.4-1.19-4.03-2.36-5.92-6.58-6.71-9.01-.34-1.04.29-2.14,1.34-2.37,2.46-.53,6.99-.98,11.06,1.4Z"/>
    <path class="cls-5" d="m307.63,223.89c4.67-2.74,10.45-1.66,12.39-1.18.38.09.61.49.51.88-.53,1.94-2.41,7.47-7.22,10.29-4.03,2.36-8.58,1.91-11.06,1.39-1.06-.22-1.69-1.32-1.35-2.36.78-2.43,2.66-6.63,6.72-9.01Z"/>
    <path class="cls-5" d="m314.84,234.18c0-5.47,3.8-10,5.19-11.47.27-.29.73-.29,1,0,1.39,1.43,5.18,5.85,5.18,11.48,0,4.72-2.66,8.49-4.34,10.4-.72.82-1.97.82-2.69,0-1.68-1.9-4.34-5.65-4.34-10.41Z"/>
    <path class="cls-5" d="m327.24,233c-4.67-2.74-6.64-8.34-7.21-10.29-.11-.38.11-.78.5-.88,1.92-.51,7.59-1.62,12.4,1.19,4.03,2.36,5.92,6.58,6.71,9.01.34,1.04-.29,2.14-1.34,2.37-2.46.53-6.99.98-11.06-1.4Z"/>
    <path class="cls-5" d="m332.14,221.69c-4.54,2.66-10.2,1.52-12.11,1.02-.38-.1-.61-.5-.51-.88.49-1.92,2.26-7.39,6.93-10.12,3.92-2.29,8.38-1.79,10.8-1.24,1.04.23,1.67,1.33,1.35,2.36-.73,2.4-2.52,6.55-6.47,8.86Z"/>
    <g>
      <path class="cls-3" d="m318.86,210.14c2.7,4.74,1.64,10.59,1.16,12.57-.09.39-.48.62-.87.52-1.91-.54-7.37-2.44-10.15-7.32-2.33-4.09-1.88-8.7-1.37-11.21.22-1.07,1.3-1.71,2.33-1.37,2.39.79,6.54,2.69,8.89,6.81Z"/>
      <path class="cls-3" d="m308.71,217.45c5.4,0,9.87,3.86,11.32,5.26.29.28.29.74,0,1.02-1.41,1.41-5.77,5.25-11.32,5.25-4.65,0-8.37-2.7-10.26-4.4-.8-.73-.81-2,0-2.73,1.87-1.7,5.57-4.4,10.27-4.4Z"/>
      <path class="cls-3" d="m309.88,230.01c2.7-4.74,8.23-6.74,10.15-7.31.38-.11.77.11.87.5.5,1.95,1.6,7.69-1.18,12.57-2.33,4.09-6.49,6-8.89,6.81-1.02.34-2.11-.29-2.34-1.36-.52-2.5-.97-7.09,1.38-11.21Z"/>
      <path class="cls-3" d="m321.19,235.27c-2.7-4.74-1.64-10.59-1.16-12.57.09-.39.48-.62.87-.52,1.91.54,7.37,2.44,10.15,7.32,2.33,4.09,1.88,8.7,1.37,11.21-.22,1.07-1.3,1.71-2.33,1.37-2.39-.79-6.54-2.69-8.89-6.81Z"/>
      <path class="cls-3" d="m331.35,227.97c-5.4,0-9.87-3.86-11.32-5.26-.29-.28-.29-.74,0-1.02,1.41-1.41,5.77-5.25,11.32-5.25,4.65,0,8.37,2.7,10.26,4.4.8.73.81,2,0,2.73-1.87,1.7-5.57,4.4-10.27,4.4Z"/>
      <path class="cls-3" d="m330.18,215.4c-2.7,4.74-8.23,6.74-10.15,7.31-.38.11-.77-.11-.87-.5-.5-1.95-1.6-7.69,1.18-12.57,2.33-4.09,6.49-6,8.89-6.81,1.02-.34,2.11.29,2.34,1.36.52,2.5.97,7.09-1.38,11.21Z"/>
    </g>
  </g>
  <g>
    <path class="cls-1" d="m324.83,218.33c-2.04,3.55-2.04,5.21,0,8.76.18.32-.17.68-.49.49-3.5-2.07-5.14-2.07-8.64,0-.32.19-.67-.17-.49-.49,2.04-3.55,2.04-5.21,0-8.76-.18-.32.17-.68.49-.49,3.5,2.07,5.14,2.07,8.64,0,.32-.19.67.17.49.49Z"/>
    <path class="cls-1" d="m326.48,223.06c-3.92,1.04-5.08,2.22-6.11,6.19-.09.36-.6.36-.69,0-1.03-3.97-2.19-5.15-6.11-6.19-.35-.09-.35-.6,0-.7,3.92-1.04,5.08-2.22,6.11-6.19.09-.36.6-.36.69,0,1.03,3.97,2.19,5.15,6.11,6.19.35.09.35.6,0,.7Z"/>
  </g>
  <g>
    <path class="cls-5" d="m18.27,120.74c3.57,4.14,3.65,10.06,3.56,12.08-.02.4-.36.7-.75.66-1.99-.18-7.74-1.05-11.42-5.31-3.08-3.57-3.53-8.17-3.5-10.71.01-1.09.96-1.91,2.04-1.76,2.51.34,6.97,1.45,10.08,5.05Z"/>
    <path class="cls-5" d="m9.65,129.73c5.33-.98,10.48,1.98,12.18,3.09.33.22.43.67.2.99-1.12,1.64-4.69,6.18-10.17,7.19-4.59.85-8.78-1.12-10.97-2.44-.93-.57-1.18-1.81-.53-2.67,1.52-2.01,4.65-5.31,9.29-6.16Z"/>
    <path class="cls-5" d="m13.21,141.81c1.75-5.12,6.83-8.08,8.62-8.99.35-.18.79-.03.96.33.87,1.81,3.06,7.23,1.25,12.5-1.51,4.42-5.25,7.05-7.47,8.27-.94.52-2.14.1-2.57-.91-.99-2.35-2.32-6.76-.79-11.21Z"/>
    <path class="cls-5" d="m25.39,144.89c-3.57-4.14-3.65-10.06-3.56-12.08.02-.4.36-.7.75-.66,1.99.18,7.74,1.05,11.42,5.31,3.08,3.57,3.53,8.17,3.5,10.71-.01,1.09-.96,1.91-2.04,1.76-2.51-.34-6.97-1.45-10.08-5.05Z"/>
    <path class="cls-5" d="m34.01,135.9c-5.33.98-10.48-1.98-12.18-3.09-.33-.22-.43-.67-.2-.99,1.12-1.64,4.69-6.18,10.17-7.19,4.59-.85,8.78,1.12,10.97,2.44.93.57,1.18,1.81.53,2.67-1.52,2.01-4.65,5.31-9.29,6.16Z"/>
    <path class="cls-5" d="m30.34,124.14c-1.7,4.98-6.73,7.81-8.51,8.68-.35.17-.78.02-.96-.33-.88-1.78-3.11-7.07-1.36-12.2,1.47-4.29,5.17-6.82,7.37-7.99.94-.5,2.13-.08,2.57.91,1.01,2.3,2.37,6.6.89,10.93Z"/>
    <g>
      <path class="cls-3" d="m12.74,124.06c5.14,1.83,8.16,6.95,9.09,8.75.18.36.04.79-.32.96-1.8.84-7.18,2.97-12.46,1.09-4.43-1.57-7.11-5.36-8.36-7.59-.53-.95-.13-2.15.87-2.56,2.33-.96,6.71-2.23,11.18-.64Z"/>
      <path class="cls-3" d="m9.82,136.22c4.09-3.53,9.99-3.52,12.01-3.41.4.02.7.37.67.77-.15,1.99-.94,7.75-5.15,11.37-3.52,3.04-8.1,3.43-10.65,3.37-1.08-.03-1.92-.99-1.79-2.06.3-2.51,1.35-6.97,4.9-10.03Z"/>
      <path class="cls-3" d="m18.91,144.98c-1.05-5.35,1.83-10.47,2.92-12.16.21-.33.66-.42.99-.19,1.65,1.15,6.24,4.78,7.32,10.29.91,4.61-1,8.79-2.29,10.96-.55.93-1.79,1.16-2.66.5-2.02-1.55-5.36-4.74-6.28-9.39Z"/>
      <path class="cls-3" d="m30.92,141.57c-5.14-1.83-8.16-6.95-9.09-8.75-.18-.36-.04-.79.32-.96,1.8-.84,7.18-2.97,12.46-1.09,4.43,1.57,7.11,5.36,8.36,7.59.53.95.13,2.15-.87,2.56-2.33.96-6.71,2.23-11.18.64Z"/>
      <path class="cls-3" d="m33.83,129.41c-4.09,3.53-9.99,3.52-12.01,3.41-.4-.02-.7-.37-.67-.77.15-1.99.94-7.75,5.15-11.37,3.52-3.04,8.1-3.43,10.65-3.37,1.08.03,1.92.99,1.79,2.06-.3,2.51-1.35,6.97-4.9,10.03Z"/>
      <path class="cls-3" d="m24.75,120.65c1.05,5.35-1.83,10.47-2.92,12.16-.21.33-.66.42-.99.19-1.65-1.15-6.24-4.78-7.32-10.29-.91-4.61,1-8.79,2.29-10.96.55-.93,1.79-1.16,2.66-.5,2.02,1.55,5.36,4.74,6.28,9.39Z"/>
    </g>
  </g>
  <g>
    <path class="cls-1" d="m22.61,126.36c.77,4.02,1.86,5.28,5.72,6.63.35.12.31.63-.05.69-4,.72-5.25,1.79-6.54,5.64-.12.35-.62.31-.69-.06-.77-4.02-1.86-5.28-5.72-6.63-.35-.12-.31-.63.05-.69,4-.72,5.25-1.79,6.54-5.64.12-.35.62-.31.69.06Z"/>
    <path class="cls-1" d="m26.94,128.87c-2.29,3.35-2.4,5-.58,8.68.16.33-.22.66-.52.45-3.37-2.34-5.02-2.47-8.67-.7-.33.16-.66-.23-.46-.53,2.29-3.35,2.4-5,.58-8.68-.16-.33.22-.66.52-.45,3.37,2.34,5.02,2.47,8.67.7.33-.16.66.23.46.53Z"/>
  </g>
  <path class="cls-6" d="m38.27,34.22c-1.7,1.68-3.07,3.67-4.03,5.64-.95-1.97-2.33-3.96-4.03-5.64-2.92-2.99-6.06-3.95-7.81-3-1.89.86-2.24,3.4-3.59,4.53-1.13,1.35-3.66,1.7-4.53,3.59-.96,1.75,0,4.89,3,7.81,1.68,1.7,3.68,3.07,5.64,4.03-1.97.95-3.96,2.33-5.64,4.03-2.99,2.92-3.95,6.06-3,7.81.86,1.89,3.4,2.24,4.53,3.59,1.35,1.13,1.7,3.66,3.59,4.53,1.75.96,4.89,0,7.81-3,1.7-1.68,3.07-3.67,4.03-5.64.95,1.97,2.33,3.96,4.03,5.64,2.92,2.99,6.06,3.95,7.81,3,1.89-.86,2.24-3.4,3.59-4.53,1.13-1.35,3.66-1.7,4.53-3.59.96-1.75,0-4.89-3-7.81-1.68-1.7-3.67-3.07-5.64-4.03,1.97-.95,3.96-2.33,5.64-4.03,2.99-2.92,3.95-6.06,3-7.81-.86-1.89-3.4-2.24-4.53-3.59-1.35-1.13-1.7-3.66-3.59-4.53-1.75-.96-4.89,0-7.81,3Z"/>
  <path class="cls-7" d="m39.12,46.8c-2.07,3.54-2.07,5.21,0,8.76.19.32-.17.68-.49.49-3.54-2.07-5.21-2.07-8.76,0-.32.19-.68-.17-.49-.49,2.07-3.54,2.07-5.21,0-8.76-.19-.32.17-.68.49-.49,3.54,2.07,5.21,2.07,8.76,0,.32-.19.68.17.49.49Z"/>
</svg>